<svg
      viewBox="32.285 158.716 301.276 81.12"
      xmlns="http://www.w3.org/2000/svg"
    >
      <defs>
        <linearGradient
          id="gradient-0"
          x1="50"
          x2="50"
          y1="20.65"
          y2="79.35"
          gradientUnits="userSpaceOnUse"
        >
          <stop style={{ stopColor: "rgb(34, 207, 234)" }} offset="0.325" />
          <stop style={{ stopColor: "rgb(0, 135, 156)" }} offset="1" />
        </linearGradient>
      </defs>
      <g
        id="SvgjsG1103"
        featurekey="hmhgWD-0"
        transform="matrix(1.290536, 0, 0, 1.290536, 25.735062, 135.417908)"
        fill="rgb(34, 208, 234)"
      >
        <path
          xmlns="http://www.w3.org/2000/svg"
          d="M89.346,48.745c-2.688-2.958-7.158-4.861-11.124-4.737c-3.738,0.115-6.597,2.19-8.047,5.844  c-0.417,1.052-0.661,2.317-0.919,3.658c-0.526,2.732-1.07,5.558-3.102,6.527c-0.709,0.337-1.443,0.3-2.183-0.11  c-1.57-0.873-2.703-3.114-2.89-4.776c-0.242-2.14,0.648-3.97,1.592-5.909c0.432-0.889,0.88-1.808,1.209-2.759  c1.238-3.587,0.896-6.903-0.062-11.091c-2.101-9.194-11.786-14.048-19.896-14.669c-6.895-0.527-15.38,1.727-18.515,9.636  c-2.576,6.498-1.47,12.684-0.298,19.233l0.402,2.282c0.428,2.509,0.053,4.318-1.083,5.232c-1.244,1-3.445,0.97-6.037-0.083  c-0.695-0.282-1.366-0.806-2.076-1.362c-1.038-0.812-2.11-1.65-3.408-1.825c-2.264-0.305-5.118,1.405-5.946,5.174  C6.062,63.1,8.49,68.426,11.322,70.834c3.432,2.922,8.338,5.04,10.799,5.752c6.513,1.882,11.556,1.806,14.987-0.227  c5.423-3.213,5.823-12.317,4.027-17.655l-0.529-1.526c-1.532-4.358-3.117-8.866,0.385-12.388c0.868-0.872,1.813-1.229,2.812-1.059  c1.56,0.267,3.242,1.852,4.287,4.041c1.751,3.526,1.588,7.59,1.416,11.892c-0.213,5.322-0.433,10.825,3.284,15.211  c5.324,6.285,14.953,4.586,20.217,3.014c6.905-2.064,13.873-4.789,18.07-10.702C94.849,61.87,93.274,53.065,89.346,48.745z   M84.36,56.993c0.04,1.077-0.802,1.982-1.882,2.019c-1.078,0.038-1.982-0.805-2.022-1.883c-0.036-1.079,0.804-1.984,1.885-2.021  C83.419,55.069,84.323,55.912,84.36,56.993z M88.384,53.567c1.077-0.036,1.983,0.804,2.022,1.884  c0.038,1.08-0.807,1.984-1.884,2.022c-1.08,0.039-1.984-0.806-2.024-1.884C86.462,54.513,87.307,53.606,88.384,53.567z"
        />
      </g>
      <g
        id="SvgjsG1104"
        featurekey="1RRcwp-0"
        transform="matrix(2.535244, 0, 0, 2.535244, 175.733444, 118.502029)"
        fill="rgb(17, 17, 17)"
      >
        <path
          d="M -9.231200160217284 21.85520079345703 L -8.156800160217285 21.85520079345703 L -8.156800160217285 23.30880079345703 Q -7.035000160217285 21.63400079345703 -5.281200160217285 21.63400079345703 Q -4.349000160217285 21.63400079345703 -3.614300160217285 22.163300793457033 Q -2.8796001602172847 22.692600793457032 -2.626800160217284 23.65640079345703 Q -2.1054001602172843 22.67680079345703 -1.2996001602172846 22.15540079345703 Q -0.493800160217285 21.63400079345703 0.5568998397827158 21.63400079345703 Q 1.6075998397827167 21.63400079345703 2.460799839782716 22.44770079345703 Q 3.313999839782717 23.26140079345703 3.313999839782717 25.66300079345703 L 3.313999839782717 30.24500079345703 L 2.2079998397827154 30.24500079345703 L 2.2079998397827154 25.66300079345703 Q 2.2079998397827154 24.509600793457032 2.0657998397827164 23.96450079345703 Q 1.9235998397827156 23.41940079345703 1.4495998397827154 23.04810079345703 Q 0.9755998397827153 22.67680079345703 0.19349983978271545 22.67680079345703 Q -0.5886001602172843 22.67680079345703 -1.2680001602172837 23.19820079345703 Q -1.9474001602172848 23.71960079345703 -2.2002001602172836 24.52540079345703 Q -2.453000160217284 25.33120079345703 -2.453000160217284 26.95860079345703 L -2.453000160217284 30.24500079345703 L -3.5116001602172844 30.24500079345703 L -3.5116001602172844 25.94740079345703 Q -3.5116001602172844 24.60440079345703 -3.6538001602172843 24.02770079345703 Q -3.796000160217284 23.45100079345703 -4.285800160217285 23.06390079345703 Q -4.775600160217285 22.67680079345703 -5.486600160217285 22.67680079345703 Q -6.197600160217284 22.67680079345703 -6.821700160217285 23.09550079345703 Q -7.445800160217285 23.51420079345703 -7.801300160217285 24.24100079345703 Q -8.156800160217285 24.96780079345703 -8.156800160217285 26.69000079345703 L -8.156800160217285 30.24500079345703 L -9.231200160217284 30.24500079345703 Z M 5.193596401977539 26.10540079345703 Q 5.193596401977539 24.25680079345703 6.465496401977539 22.945400793457033 Q 7.73739640197754 21.63400079345703 9.56229640197754 21.63400079345703 Q 11.38719640197754 21.63400079345703 12.65909640197754 22.945400793457033 Q 13.93099640197754 24.25680079345703 13.93099640197754 26.08960079345703 Q 13.93099640197754 27.92240079345703 12.67489640197754 29.22590079345703 Q 11.41879640197754 30.529400793457032 9.57019640197754 30.529400793457032 Q 7.721596401977539 30.529400793457032 6.45759640197754 29.22590079345703 Q 5.193596401977539 27.92240079345703 5.193596401977539 26.10540079345703 Z M 12.84079640197754 26.12120079345703 Q 12.84079640197754 24.73080079345703 11.86909640197754 23.71170079345703 Q 10.89739640197754 22.692600793457032 9.56229640197754 22.692600793457032 Q 8.22719640197754 22.692600793457032 7.263396401977539 23.71170079345703 Q 6.2995964019775395 24.73080079345703 6.2995964019775395 26.13700079345703 Q 6.2995964019775395 27.543200793457032 7.231796401977539 28.52280079345703 Q 8.163996401977538 29.50240079345703 9.546496401977539 29.50240079345703 Q 10.928996401977539 29.50240079345703 11.884896401977539 28.51490079345703 Q 12.84079640197754 27.52740079345703 12.84079640197754 26.12120079345703 Z M 15.147172947692871 21.85520079345703 L 16.30057294769287 21.85520079345703 L 19.097172947692872 28.238400793457032 L 21.893772947692874 21.85520079345703 L 23.04717294769287 21.85520079345703 L 19.20777294769287 30.529400793457032 L 19.01817294769287 30.529400793457032 Z M 24.184415850830078 19.51680079345703 Q 24.184415850830078 19.15340079345703 24.445115850830078 18.884800793457032 Q 24.705815850830078 18.616200793457033 25.07711585083008 18.616200793457033 Q 25.448415850830077 18.616200793457033 25.709115850830077 18.876900793457033 Q 25.969815850830077 19.137600793457032 25.969815850830077 19.50890079345703 Q 25.969815850830077 19.88020079345703 25.709115850830077 20.14090079345703 Q 25.448415850830077 20.40160079345703 25.07711585083008 20.40160079345703 Q 24.705815850830078 20.40160079345703 24.445115850830078 20.13300079345703 Q 24.184415850830078 19.86440079345703 24.184415850830078 19.51680079345703 Z M 24.532015850830078 21.85520079345703 L 25.622215850830077 21.85520079345703 L 25.622215850830077 30.24500079345703 L 24.532015850830078 30.24500079345703 Z M 34.91248599853516 27.52740079345703 L 35.828885998535156 28.00140079345703 Q 34.470085998535154 30.529400793457032 31.81568599853516 30.529400793457032 Q 29.919685998535158 30.529400793457032 28.687285998535156 29.22590079345703 Q 27.454885998535158 27.92240079345703 27.454885998535158 26.08960079345703 Q 27.454885998535158 24.25680079345703 28.695185998535155 22.945400793457033 Q 29.935485998535157 21.63400079345703 31.760385998535156 21.63400079345703 Q 33.585285998535156 21.63400079345703 34.82558599853516 22.85060079345703 Q 36.06588599853516 24.06720079345703 36.11328599853516 26.16860079345703 L 28.560885998535156 26.16860079345703 Q 28.608285998535155 27.68540079345703 29.516785998535155 28.60970079345703 Q 30.425285998535156 29.534000793457032 31.720885998535156 29.534000793457032 Q 33.853885998535155 29.534000793457032 34.91248599853516 27.52740079345703 Z M 34.91248599853516 25.23640079345703 Q 34.69128599853516 24.03560079345703 33.80648599853516 23.35620079345703 Q 32.92168599853515 22.67680079345703 31.768285998535156 22.67680079345703 Q 29.398285998535158 22.67680079345703 28.671485998535157 25.23640079345703 Z"
          transform="matrix(1, 0, 0, 1, 0, 0)"
          style={{
            fill: textColor,
            lineHeight: "25",
            whiteSpace: "pre",
          }}
        />
        <path
          d="M 11.76819095611572 33.20081634521485 Q 11.044655799865723 34.82293548583984 10.204421424865721 36.392539978027344 Q 9.36418704986572 37.962144470214845 8.448098182678223 39.362535095214845 Q 7.532009315490722 40.762925720214845 6.5750757217407205 41.94742279052734 Q 5.618142127990723 43.131919860839844 4.678713417053222 43.98965911865234 Q 3.739284706115722 44.847398376464845 2.8465356826782227 45.33170013427734 Q 1.9537866592407216 45.816001892089844 1.1602319717407212 45.816001892089844 Q 0.8334741592407227 45.816001892089844 0.5533960342407216 45.699302673339844 Q 0.2733179092407223 45.582603454589844 0.06325931549072195 45.378379821777344 Q -0.1467992782592784 45.174156188964844 -0.2634984970092784 44.89407806396484 Q -0.3801977157592784 44.613999938964845 -0.3801977157592784 44.28724212646485 L -0.3801977157592784 38.62733001708985 L -6.401877403259277 45.36087493896484 Q -6.635275840759277 45.59427337646484 -6.909519004821778 45.70513763427734 Q -7.183762168884277 45.816001892089844 -7.475510215759277 45.816001892089844 Q -7.7905981063842775 45.816001892089844 -8.064841270446777 45.699302673339844 Q -8.339084434509278 45.582603454589844 -8.549143028259277 45.378379821777344 Q -8.759201622009277 45.174156188964844 -8.881735801696777 44.89407806396484 Q -9.004269981384278 44.613999938964845 -9.004269981384278 44.28724212646485 L -9.004269981384278 33.20081634521485 L -5.970090293884278 33.20081634521485 L -5.970090293884278 40.389488220214844 L 0.07492923736572266 33.63260345458984 Q 0.40168704986572124 33.30584564208984 0.850979042053222 33.21832122802734 Q 1.3002710342407227 33.13079681396484 1.7320581436157223 33.31751556396485 Q 2.163845252990722 33.49256439208985 2.4147485733032212 33.87183685302735 Q 2.6656518936157223 34.25110931396485 2.6656518936157223 34.70623626708984 L 2.6656518936157223 41.91824798583984 Q 3.6459253311157216 40.972984313964844 4.439480018615722 39.922691345214844 Q 5.233034706115722 38.872398376464844 5.915725135803221 37.757920837402345 Q 6.598415565490722 36.64344329833985 7.199416542053221 35.49395599365234 Q 7.8004175186157205 34.344468688964845 8.37224369049072 33.20081634521485 Z M 26.540728950500487 41.556480407714844 Q 26.540728950500487 42.338365173339845 26.342340278625485 42.96270599365234 Q 26.143951606750488 43.58704681396485 25.817193794250485 44.059678649902345 Q 25.490435981750487 44.532310485839844 25.058648872375485 44.86490325927734 Q 24.626861763000488 45.197496032714845 24.154229927062985 45.407554626464844 Q 23.681598091125487 45.61761322021484 23.197296333312988 45.71680755615235 Q 22.71299457550049 45.816001892089844 22.281207466125487 45.816001892089844 L 16.808014106750488 45.816001892089844 Q 16.17783832550049 45.816001892089844 15.430963325500489 45.59427337646484 Q 14.684088325500488 45.372544860839845 14.048077583312988 44.86490325927734 Q 13.412066841125489 44.357261657714844 12.986114692687988 43.54620208740234 Q 12.560162544250488 42.73514251708984 12.560162544250488 41.556480407714844 L 12.560162544250488 37.44866790771484 Q 12.560162544250488 36.28167572021484 12.986114692687988 35.47061614990234 Q 13.412066841125489 34.65955657958985 14.048077583312988 34.15191497802734 Q 14.684088325500488 33.644273376464845 15.430963325500489 33.42254486083984 Q 16.17783832550049 33.20081634521485 16.808014106750488 33.20081634521485 L 22.281207466125487 33.20081634521485 Q 23.448199653625487 33.20081634521485 24.265094184875487 33.620933532714844 Q 25.081988716125487 34.04105072021484 25.583795356750485 34.67706146240234 Q 26.085601997375488 35.313072204589844 26.313165473937985 36.05994720458985 Q 26.540728950500487 36.80682220458984 26.540728950500487 37.44866790771484 Z M 23.506549263000487 37.472007751464844 Q 23.506549263000487 36.84183197021484 23.191461372375485 36.538414001464844 Q 22.876373481750488 36.23499603271485 22.281207466125487 36.23499603271485 L 16.83135395050049 36.23499603271485 Q 16.224518013000488 36.23499603271485 15.909430122375488 36.54424896240234 Q 15.594342231750488 36.853501892089845 15.594342231750488 37.44866790771484 L 15.594342231750488 41.556480407714844 Q 15.594342231750488 42.15164642333984 15.909430122375488 42.46673431396484 Q 16.224518013000488 42.781822204589844 16.83135395050049 42.781822204589844 L 22.281207466125487 42.781822204589844 Q 22.899713325500485 42.781822204589844 23.20313129425049 42.46673431396484 Q 23.506549263000487 42.15164642333984 23.506549263000487 41.556480407714844 Z M 40.15834274291992 36.23499603271485 L 33.33143844604492 36.23499603271485 Q 32.71293258666992 36.23499603271485 32.39784469604492 36.54424896240234 Q 32.08275680541992 36.853501892089845 32.08275680541992 37.44866790771484 L 32.08275680541992 45.816001892089844 L 29.048577117919923 45.816001892089844 L 29.048577117919923 37.44866790771484 Q 29.048577117919923 36.66678314208984 29.24696578979492 36.04827728271484 Q 29.445354461669922 35.429771423339844 29.777947235107423 34.957139587402345 Q 30.110540008544923 34.48450775146485 30.54232711791992 34.15191497802734 Q 30.974114227294923 33.819322204589845 31.44674606323242 33.60926361083985 Q 31.919377899169923 33.39920501708984 32.40367965698242 33.300010681152344 Q 32.88798141479492 33.20081634521485 33.30809860229492 33.20081634521485 L 40.15834274291992 33.20081634521485 Z M 53.41442642211914 45.816001892089844 L 50.38024673461914 45.816001892089844 L 50.38024673461914 37.44866790771484 Q 50.38024673461914 36.853501892089845 50.06515884399414 36.54424896240234 Q 49.75007095336914 36.23499603271485 49.13156509399414 36.23499603271485 L 45.18713150024414 36.23499603271485 L 45.18713150024414 45.816001892089844 L 42.15295181274414 45.816001892089844 L 42.15295181274414 34.70623626708984 Q 42.15295181274414 34.39114837646484 42.26965103149414 34.116905212402344 Q 42.38635025024414 33.84266204833985 42.59640884399414 33.63843841552735 Q 42.80646743774414 33.43421478271485 43.08654556274414 33.31751556396485 Q 43.36662368774414 33.20081634521485 43.68171157836914 33.20081634521485 L 49.15490493774414 33.20081634521485 Q 49.78508071899414 33.20081634521485 50.50861587524414 33.42254486083984 Q 51.23215103149414 33.644273376464845 51.88566665649414 34.13441009521485 L 51.88566665649414 33.20081634521485 L 55.99347915649414 33.20081634521485 Q 56.42526626586914 33.20081634521485 56.90373306274414 33.300010681152344 Q 57.382199859619135 33.39920501708984 57.85483169555664 33.60926361083985 Q 58.32746353149414 33.819322204589845 58.75925064086914 34.15191497802734 Q 59.191037750244135 34.48450775146485 59.51779556274414 34.957139587402345 Q 59.84455337524414 35.429771423339844 60.04294204711914 36.04827728271484 Q 60.241330718994135 36.66678314208984 60.241330718994135 37.44866790771484 L 60.241330718994135 45.816001892089844 L 57.207151031494135 45.816001892089844 L 57.207151031494135 37.44866790771484 Q 57.207151031494135 36.853501892089845 56.90956802368164 36.54424896240234 Q 56.61198501586914 36.23499603271485 55.99347915649414 36.23499603271485 L 53.26271743774414 36.23499603271485 Q 53.41442642211914 36.795152282714845 53.41442642211914 37.44866790771484 Z"
          transform="matrix(1, 0, 0, 1, 0, 0)"
          style={{ fill: "rgb(34, 208, 234)", whiteSpace: "pre" }}
        />
      </g>
    </svg>