<?xml version="1.0" encoding="utf-8"?>
<svg viewBox="77.24 112.951 344.606 233.969" xmlns="http://www.w3.org/2000/svg">
  <g id="SvgjsG1103" featurekey="hmhgWD-0" transform="matrix(3.985894, 0, 0, 3.985894, 50.246582, 30.640804)" fill="#22D0EA" style="">
    <path xmlns="http://www.w3.org/2000/svg" d="M89.346,48.745c-2.688-2.958-7.158-4.861-11.124-4.737c-3.738,0.115-6.597,2.19-8.047,5.844  c-0.417,1.052-0.661,2.317-0.919,3.658c-0.526,2.732-1.07,5.558-3.102,6.527c-0.709,0.337-1.443,0.3-2.183-0.11  c-1.57-0.873-2.703-3.114-2.89-4.776c-0.242-2.14,0.648-3.97,1.592-5.909c0.432-0.889,0.88-1.808,1.209-2.759  c1.238-3.587,0.896-6.903-0.062-11.091c-2.101-9.194-11.786-14.048-19.896-14.669c-6.895-0.527-15.38,1.727-18.515,9.636  c-2.576,6.498-1.47,12.684-0.298,19.233l0.402,2.282c0.428,2.509,0.053,4.318-1.083,5.232c-1.244,1-3.445,0.97-6.037-0.083  c-0.695-0.282-1.366-0.806-2.076-1.362c-1.038-0.812-2.11-1.65-3.408-1.825c-2.264-0.305-5.118,1.405-5.946,5.174  C6.062,63.1,8.49,68.426,11.322,70.834c3.432,2.922,8.338,5.04,10.799,5.752c6.513,1.882,11.556,1.806,14.987-0.227  c5.423-3.213,5.823-12.317,4.027-17.655l-0.529-1.526c-1.532-4.358-3.117-8.866,0.385-12.388c0.868-0.872,1.813-1.229,2.812-1.059  c1.56,0.267,3.242,1.852,4.287,4.041c1.751,3.526,1.588,7.59,1.416,11.892c-0.213,5.322-0.433,10.825,3.284,15.211  c5.324,6.285,14.953,4.586,20.217,3.014c6.905-2.064,13.873-4.789,18.07-10.702C94.849,61.87,93.274,53.065,89.346,48.745z   M84.36,56.993c0.04,1.077-0.802,1.982-1.882,2.019c-1.078,0.038-1.982-0.805-2.022-1.883c-0.036-1.079,0.804-1.984,1.885-2.021  C83.419,55.069,84.323,55.912,84.36,56.993z M88.384,53.567c1.077-0.036,1.983,0.804,2.022,1.884  c0.038,1.08-0.807,1.984-1.884,2.022c-1.08,0.039-1.984-0.806-2.024-1.884C86.462,54.513,87.307,53.606,88.384,53.567z" style="fill-rule: nonzero; paint-order: fill;"/>
  </g>
</svg>